<?xml version="1.0" standalone="no"?>
<!DOCTYPE svg PUBLIC "-//W3C//DTD SVG 20010904//EN"
 "http://www.w3.org/TR/2001/REC-SVG-20010904/DTD/svg10.dtd">
<svg version="1.0" xmlns="http://www.w3.org/2000/svg"
 width="539.000000pt" height="539.000000pt" viewBox="0 0 539.000000 539.000000"
 preserveAspectRatio="xMidYMid meet">
<metadata>
Created by potrace 1.14, written by Peter Selinger 2001-2017
</metadata>
<g transform="translate(0.000000,539.000000) scale(0.100000,-0.100000)"
fill="#000000" stroke="none">
<path d="M2273 4946 c-64 -21 -127 -61 -157 -100 -33 -44 -65 -114 -66 -142 0
-19 -7 -22 -59 -27 -166 -15 -290 -142 -293 -299 -1 -81 14 -134 53 -188 28
-38 30 -46 18 -64 -54 -86 -63 -111 -67 -191 -4 -74 -1 -89 23 -144 47 -104
131 -165 255 -184 l67 -10 11 -42 c25 -95 120 -190 215 -216 63 -17 164 -7
220 21 58 29 111 86 141 149 21 45 21 54 21 636 l0 590 -24 47 c-30 62 -89
120 -149 148 -58 28 -152 35 -209 16z m185 -75 c48 -24 88 -65 115 -116 20
-37 22 -55 22 -265 l0 -225 -82 -3 c-83 -3 -83 -3 -83 23 0 24 -2 25 -70 25
l-70 0 0 -70 0 -70 70 0 c68 0 70 1 70 25 0 25 1 25 86 25 l85 0 -3 -322 c-4
-351 -5 -357 -64 -427 -57 -68 -164 -97 -249 -67 -103 35 -164 112 -172 221
-6 62 -6 63 -30 54 -41 -15 -125 -10 -173 12 -99 45 -144 116 -145 229 0 64 4
82 28 122 15 26 43 59 61 73 l34 26 -48 45 c-187 175 -22 474 233 421 l37 -8
0 53 c1 93 58 180 145 219 55 25 154 25 203 0z m-78 -631 c0 -25 -4 -30 -25
-30 -21 0 -25 5 -25 30 0 25 4 30 25 30 21 0 25 -5 25 -30z"/>
<path d="M2220 4660 l0 -70 70 0 c68 0 70 1 70 25 0 23 4 25 40 25 l40 0 0
-115 c0 -108 1 -115 20 -115 19 0 20 7 20 135 l0 135 -60 0 c-57 0 -60 1 -60
25 0 24 -2 25 -70 25 l-70 0 0 -70z m95 0 c0 -20 -5 -25 -25 -25 -20 0 -26 6
-28 28 -3 26 -1 28 25 25 22 -2 28 -8 28 -28z"/>
<path d="M1930 4416 c0 -59 2 -65 23 -68 20 -3 22 -9 25 -85 l3 -83 94 0 95 0
0 -105 0 -105 110 0 c103 0 110 1 110 20 0 17 -8 19 -87 22 l-88 3 -3 103 -3
102 -94 0 -95 0 0 65 c0 63 1 65 25 65 24 0 25 2 25 65 l0 65 -70 0 -70 0 0
-64z m90 -1 c0 -20 -5 -25 -25 -25 -20 0 -25 5 -25 25 0 20 5 25 25 25 20 0
25 -5 25 -25z"/>
<path d="M2460 3845 l0 -245 -35 0 c-28 0 -35 4 -35 20 0 18 -7 20 -70 20
l-70 0 0 -65 0 -65 70 0 c63 0 70 2 70 19 0 17 8 20 53 23 l52 3 3 268 c2 262
2 267 -18 267 -20 0 -20 -6 -20 -245z m-110 -270 c0 -21 -5 -25 -30 -25 -25 0
-30 4 -30 25 0 21 5 25 30 25 25 0 30 -4 30 -25z"/>
<path d="M1930 4000 c0 -68 1 -70 25 -70 l25 0 0 -100 0 -101 108 3 c87 2 107
6 107 18 0 12 -18 16 -87 18 l-88 3 0 79 c0 79 0 80 25 80 26 0 26 1 23 68
l-3 67 -67 3 -68 3 0 -71z m90 -5 c0 -20 -5 -25 -25 -25 -20 0 -25 5 -25 25 0
20 5 25 25 25 20 0 25 -5 25 -25z"/>
<path d="M2965 4946 c-66 -21 -101 -43 -143 -91 -78 -88 -76 -74 -80 -670 -4
-648 0 -677 95 -770 58 -57 107 -78 194 -83 67 -4 83 -1 138 23 93 42 155 118
186 232 2 6 30 14 62 18 243 29 370 289 238 486 l-34 50 30 41 c141 196 12
473 -231 495 l-57 6 -17 52 c-51 164 -225 260 -381 211z m191 -80 c28 -13 65
-41 83 -62 36 -44 65 -131 59 -175 -5 -29 -4 -29 31 -22 167 36 314 -78 313
-242 -1 -78 -30 -143 -84 -189 l-40 -34 41 -37 c57 -52 81 -107 81 -186 0 -77
-22 -129 -76 -181 -62 -59 -158 -83 -240 -59 l-31 9 -1 -52 c-1 -165 -164
-283 -320 -232 -61 21 -135 95 -151 152 -7 26 -11 228 -11 594 l0 555 24 50
c43 92 109 134 211 135 43 0 75 -7 111 -24z"/>
<path d="M3040 4730 c0 -18 -7 -20 -70 -20 l-70 0 0 -345 c0 -300 -2 -345 -15
-345 -12 0 -15 -14 -15 -70 l0 -70 70 0 70 0 0 70 0 70 -35 0 -35 0 0 200 0
200 130 0 130 0 0 -120 c0 -113 -1 -120 -20 -120 -18 0 -20 -7 -20 -60 l0 -60
60 0 60 0 0 60 c0 53 -2 60 -20 60 -19 0 -20 7 -20 120 l0 120 75 0 75 0 0
-65 c0 -58 -2 -65 -20 -65 -18 0 -20 -7 -20 -60 l0 -60 60 0 60 0 0 60 c0 53
-2 60 -20 60 -18 0 -20 7 -20 85 l0 85 -242 2 -243 3 -3 98 -3 97 51 0 c43 0
50 -3 50 -20 0 -18 7 -20 65 -20 l65 0 0 65 0 65 -65 0 c-58 0 -65 -2 -65 -20z
m90 -45 c0 -20 -5 -25 -25 -25 -20 0 -25 5 -25 25 0 20 5 25 25 25 20 0 25 -5
25 -25z m300 -455 c0 -13 -7 -20 -20 -20 -13 0 -20 7 -20 20 0 13 7 20 20 20
13 0 20 -7 20 -20z m-190 -110 c0 -13 -7 -20 -20 -20 -13 0 -20 7 -20 20 0 13
7 20 20 20 13 0 20 -7 20 -20z m-270 -175 c0 -21 -5 -25 -30 -25 -25 0 -30 4
-30 25 0 21 5 25 30 25 25 0 30 -4 30 -25z"/>
<path d="M3350 3980 c0 -53 2 -60 20 -60 18 0 20 -7 20 -60 l0 -60 -86 0 c-83
0 -85 -1 -82 -22 3 -22 8 -23 106 -26 l102 -3 0 86 c0 78 2 85 20 85 18 0 20
7 20 60 l0 60 -60 0 -60 0 0 -60z m78 3 c-2 -10 -10 -18 -18 -18 -8 0 -16 8
-18 18 -2 12 3 17 18 17 15 0 20 -5 18 -17z"/>
<path d="M3090 3760 l0 -160 -40 0 c-36 0 -40 3 -40 25 0 24 -2 25 -70 25
l-70 0 0 -70 0 -70 70 0 c68 0 70 1 70 25 0 24 2 25 65 25 l65 0 0 180 0 180
-25 0 -25 0 0 -160z m-120 -185 c0 -21 -5 -25 -30 -25 -25 0 -30 4 -30 25 0
21 5 25 30 25 25 0 30 -4 30 -25z"/>
<path d="M3945 2630 c-81 -21 -135 -69 -155 -137 -8 -27 -10 -302 -8 -918 3
-870 3 -880 24 -920 58 -111 248 -116 315 -8 l24 38 3 728 c1 400 4 727 5 727
1 0 45 -42 98 -93 179 -176 382 -292 561 -322 l37 -6 3 -512 c3 -497 4 -513
24 -552 29 -56 83 -85 159 -85 78 0 130 29 162 89 l23 44 0 894 c0 956 1 931
-48 987 -47 52 -146 70 -217 37 -93 -43 -104 -79 -105 -349 l0 -213 -22 7
c-185 56 -314 149 -487 352 -60 70 -130 142 -156 161 -75 54 -160 72 -240 51z"/>
<path d="M285 2616 c-46 -20 -82 -69 -95 -128 -8 -38 -10 -301 -8 -924 l3
-870 25 -36 c54 -80 147 -92 660 -85 406 5 426 8 553 74 118 62 219 181 269
319 30 82 37 253 13 343 -37 145 -112 267 -234 385 l-72 69 64 66 c107 112
145 196 154 346 16 252 -99 408 -327 444 -102 17 -967 14 -1005 -3z m811 -317
c109 -20 146 -60 146 -158 -1 -74 -43 -148 -110 -195 l-39 -27 -89 30 c-105
35 -224 60 -314 67 -36 3 -80 7 -97 10 l-33 5 0 139 0 140 238 0 c131 0 265
-5 298 -11z m-376 -596 c382 -79 622 -293 608 -542 -2 -40 -11 -81 -24 -106
-23 -46 -96 -99 -157 -116 -68 -18 -211 -28 -404 -29 l-183 0 0 410 0 410 43
-6 c23 -3 76 -12 117 -21z"/>
<path d="M2185 2618 c-16 -6 -41 -20 -54 -32 -52 -47 -51 -19 -51 -968 0 -585
4 -896 11 -921 13 -50 61 -103 106 -118 53 -17 143 -7 182 21 68 48 71 65 71
443 l0 337 23 9 c12 5 103 35 202 66 618 196 873 428 852 775 -12 189 -97 305
-270 369 l-72 26 -485 2 c-327 1 -495 -1 -515 -9z m885 -328 c48 -18 69 -38
78 -74 27 -104 -95 -224 -351 -346 -100 -48 -299 -120 -331 -120 -14 0 -16 28
-16 273 0 151 3 277 8 281 13 14 573 1 612 -14z"/>
</g>
</svg>
